<svg xmlns="http://www.w3.org/2000/svg" version="1.1" xmlns:xlink="http://www.w3.org/1999/xlink" xmlns:svgjs="http://svgjs.dev/svgjs" width="1000" height="1000"><g clip-path="url(#SvgjsClipPath1464)"><rect width="1000" height="1000" fill="#ffffff"></rect><g transform="matrix(14.285714285714286,0,0,14.285714285714286,150,150)"><svg xmlns="http://www.w3.org/2000/svg" version="1.1" xmlns:xlink="http://www.w3.org/1999/xlink" xmlns:svgjs="http://svgjs.dev/svgjs" width="49" height="49"><svg width="49" height="49" viewBox="0 0 49 49" fill="none" xmlns="http://www.w3.org/2000/svg">
<g clip-path="url(#clip0_6_124)">
<g clip-path="url(#clip1_6_124)">
<path d="M26.1258 9.3227C18.7571 9.33442 12.5304 14.1725 10.4222 20.8321C13.5697 19.2333 17.1214 18.337 20.8901 18.331L29.1401 18.3179C29.9651 18.3166 30.6412 18.9905 30.6425 19.8155C30.6438 20.6405 29.9699 21.3166 29.1449 21.3179L27.6449 21.3203L20.8949 21.331C19.3386 21.3335 17.8295 21.514 16.3769 21.8445C13.9497 22.4015 11.6919 23.3894 9.68778 24.7332C4.24668 28.37 0.665916 34.5726 0.677112 41.6132L0.679498 43.1132C0.681481 44.3601 1.6862 45.3616 2.93307 45.3596C4.17995 45.3576 5.18148 44.3529 5.17949 43.1061L5.17711 41.6061C5.16985 37.0404 7.10394 32.9311 10.2025 30.048C12.07 37.1232 18.5189 42.3348 26.1783 42.3227L26.272 42.3225C38.6563 42.2372 48.6587 30.015 48.6348 14.9682C48.6284 10.9744 47.9193 7.17866 46.6388 3.75882C46.3941 3.11233 45.4472 3.14196 45.1201 3.75186C43.3628 7.05466 39.8789 9.30083 35.8758 9.30719L26.1258 9.3227Z" fill="#22C55E"></path>
</g>
</g>
<defs>
<clipPath id="clip0_6_124">
<rect width="48" height="48" fill="white" transform="translate(0.611511 0.363281) rotate(-0.091118)"></rect>
</clipPath>
<clipPath id="clip1_6_124">
<path d="M0.611511 0.363281L48.6115 0.286946L48.6878 48.2869L0.687846 48.3632L0.611511 0.363281Z" fill="white"></path>
</clipPath>
<clipPath id="SvgjsClipPath1464"><rect width="1000" height="1000" x="0" y="0" rx="500" ry="500"></rect></clipPath></defs>
</svg></svg></g></g></svg>